<svg id="Capa_1" enable-background="new 0 0 512.013 512.013" height="512" viewBox="0 0 512.013 512.013" width="512" xmlns="http://www.w3.org/2000/svg"><path d="m121.007 121.998h210v30h-210z"/><path d="m121.007 361.998h210v30h-210z"/><path d="m151.007 181.998h90v30h-90z"/><path d="m271.007 181.998h30v30h-30z"/><path d="m151.007 241.998h90v30h-90z"/><path d="m271.007 241.998h30v30h-30z"/><path d="m151.007 301.998h90v30h-90z"/><path d="m271.007 301.998h30v30h-30z"/><path d="m391.007 391.998v-346.998l-45-45-30 30-30-30-30 30-30-30-30 30-30-30-30 30-30-30-45 45v392.013c0 41.355 33.645 75 75 75h270v-.015c24.813 0 45-20.187 45-45v-75zm-300 45.015v-379.587l15-15 30 30 30-30 30 30 30-30 30 30 30-30 30 30 30-30 15 15v409.571c0 5.264.917 10.316 2.585 15.015h-227.585c-24.813.001-45-20.186-45-44.999zm330 29.985c0 8.271-6.729 15-15 15s-15-6.729-15-15v-45h30z"/></svg>